<svg xmlns="http://www.w3.org/2000/svg" viewBox="0 0 56 25" aria-hidden="true" role="presentation" focusable="false" nopin="nopin"><path d="M.812 25H55.62v-1.025l-35.25.002c-.9.43-2.044.41-2.935 0h-10.7a4.024 4.024 0 0 1-3.19.003l-2.733-.005V25zm.94-5.698c-.094.32-.16.65-.16 1a3.535 3.535 0 1 0 7.072-.001c0-.418-.087-.815-.22-1.188.407-.072.805-.16 1.198-.268.183-.05.178-.133.032-.178a14.68 14.68 0 0 0-1.65-.39 3.53 3.53 0 0 0-2.896-1.515c-.454 0-.886.094-1.282.25l-.012-.015a1.059 1.059 0 0 1-.042-.956c.358-.587 1.157-.816 1.813-.87.22-.014.75.013.807.075.13.102.35.14.583.056.227.087.283.152.54.23 2.253.77 4.75 1.176 7.273.713.393.374.612 1.028.887 1.48.074.115.164-.085 1.406-.13.44-.015.978-.01 1.445 0-.97.11-1.8.652-2.294 1.438-.776.25-1.375.486-1.6.622-.276.166-.326.258 0 .344.395.104.78.17 1.163.217a3.1 3.1 0 0 0-.048.482 3.14 3.14 0 0 0 6.28 0c0-.543-.15-1.044-.39-1.49.394-.14.81-.298 1.25-.47.342.125.575.326.82.61.197.228.65.14.917.07.434-.11.5-.457.498-.852 0-.18.008-.356.094-.496.508-1.158 2.54-1.312 3.582-1.568 0 0-.546.654-.932.8-.078 1.69-.726 3.163-.804 4.772.49.02.47.568.588.884-.136.295-.373 0-.588.097-.746-.412.177-1.078-.432-1.588.314-1.355.827-2.67.785-4.104-.196.02-.273.235-.353.393-.138 1.354-.53 2.592-.882 3.847.155.077.43.155.41.392-.47.294.02.77-.175 1.103h-4.846l-.538.482h7.43l.074-.27c-1.098-1.14-.686-2.848-.177-4.143l1.275-1.728c1.06-.413 1.707-1.708 2.826-2.12 0 .55-.688.785-1.06 1.1-.394.922-1.63 1.02-1.807 2.042.473.55 1.176.9 1.765 1.413.61.37.39 1.155.884 1.55.078.117 0 .294-.14.39-.517.126-.503.474-.19.765.198.183.425.43.398.518H28.9c0 .157.14.217.29.482h18.94c.144-.266-.165-.582-.3-.845-1.336-.507-1.33-1.772-1.405-3.166.012-.06-.08-.19-.063-.477-.2-.19-1.08-2.428-.68-4.18l.292-.578c.273-.393-.02-.604.178-1.015l3.99-.77c.075-.038.054-.2-.022-.274l-1.212.226c-.963-.405-2.378-1.302-3.308-2.518.29-1.974.146-3.573-.05-4.642.583-.482 1.06-.94 1.06-.94.402.242.49.125.544-.004-.064-.074-.662-.326-.563-.586.378.1.463-.017.522-.226l-.263-.096h-.01l.04-.14c.08-.157.436-.01.57-.05.237-.145-.026-.363.052-.56-.554-.47-1.557-.483-2.164-.922-.187-.35-.263-.497-.46-.64-.202-.144-1.083-.224-1.245-.17-.162.053-.47.344-.47.344-.63.133-1.01-.072-1.444-.334 0 0 .092.496.588.708-.438.18-.632.55-.703 1.013-.605.127-.628.727-.55 1.002-.492.293-.444.685-.27 1.08-.44.296-.374.723-.25 1.048-.368.227 0 .86.057 1.23 1.064-.22 2.392 2.126 4.3 2.415.357-1.675-.092-2.496-.504-3.323.312-.18.647-.43.976-.69.188 1.06.325 2.595.11 4.35-.014-.015-.027-.026-.035-.04-.12 0-.24-.08-.338-.12.02.06.24.407.195.47 0 0-.617.41-1.844-.105-.327.766-4.533 2.646-4.533 2.646.158 1.162.71 1.933 1.278 2.563.903.666 1.868 1.012 3.008 1.248.24.617 1.01 2.673 1.084 3.004.075.33.26.33.26.33.11.147.472.803.51 1.116l.09 1.11c.036.253.37.062.43.278l-.152.748-12.603.002c.175-.884-.275-1.653-.042-2.438-.506-.883-1.882-1.49-1.648-2.65.67-.922 2.75-1.822 2.276-2.936 1.892-.958 2.887.64 4.677.522.623-.034 1.317-.103 1.888-.272-.706-.608-1.382-1.51-1.734-2.314-3.75 1.51-7.396 2.75-11.46 3.575l-.314-.098c-.308.046-4.785 1.053-5.972 1.516a3.101 3.101 0 0 0-1.01-.387h.104c.38 0 .962-.203 1.373-.347 1.74-.634 2.38-3.11 3.163-4.684.682 2.447 2.267 2.647 3.188 2.342l.084.77s.804-.03 1.407-.27c-.06-.147-.143-.534-.198-1.046.366-.19.564-.325.73-.424.05.58.084 1.128-.088 1.423l2.068-.552c.397-1.79 1.48-4.275 3.39-6.09-2.564-1.02-4.486.144-4.975.61-2.416.772-2.512 4.105-2.44 5.253-.416.082-2.172.69-3.003-2.347.484-1.166 1.402-2.465 2.435-3.477.087-.077-.015-.196-.223-.076-2.074 1.425-2.833 3.93-3.946 6.042-.873 1.312-2.053 2.023-3.822 1.95-2.21-.036-3.278-2.34-4.29-3.835C12.885 9.47 8.872 10.688 5.89 9.96c-.166-.08-.498-1.064-.973-1.028-.338.025-.02.373-.215.49-.373-.157-.688-.432-1.158-.354-.294.06-.374.373-.353.65.235 1.078 1.393 1.55 2.257 1.944.332.495.208 2.204-.07 2.792-.353.654-1.753.42-2.032 1.922-.056.305.014.567.138.817a3.56 3.56 0 0 0-1.335 1.226c-.594.14-1.172.3-1.713.493-.144.05-.146.135.04.176.416.088.845.156 1.277.212zm44.195-8.4c.51.56 1.734 1.41 2.52 1.687l-2.267.418c.258-.96-.617-1.33-.253-2.106zm.244-7.775c.087-.036.326.057.424.083.058.014.036.142.005.254-.147.033-.38-.048-.41-.125-.04-.086-.102-.176-.02-.213zm.02.584c.028.167.1.358.195.497-.003.08-.422.467-.906.877-.12-.594-.242-1.002-.27-1.164.192-.136.708-.285.98-.21zM44.04 1.63c.083-.03.26.03.306.062.047.036.01.18.006.228-.003.05-.217.15-.217.15s-.206-.154-.203-.204l-.01-.004c.016-.053.118-.232.118-.232zm.267 4.388c-.267-.542-.483-1.112-.425-1.95.258-.004.634.165 1.13-.06 0 0 .154.464.307 1.226-.37.308-.755.608-1.013.784zm-3.394 9.41c-.81-.41-.306-.068-.072-.245 1.288.593 1.936.458 2.897.34.14.177.33.34.33.577-1.177.335-2.095-.1-3.154-.67zm4.63 6.33c-.074-.622-.11-1.064-.396-1.362-.23-.62-.89-2.345-1.36-3.898.287-.282.507-.136.696.637.18.624.4 1.14.562 1.66.22.523.385 1.22.552 1.588 0 0 .148.027.23.225.414 1.152.52 1.336.452 1.888.098.43.705.08.65.61H45.64l.567-.003c-.39-.414-.116-1.03-.666-1.344zM20.45 22.79a2.584 2.584 0 0 1-1.248.487c-.044-.015-.083-.106-.087-.163l-.074-1.605c-.002-.018.027-.036.045-.044.038-.013.148-.056.192-.082.018-.01.06-.015.076 0l1.053 1.222c.036.043.07.144.044.183zm-1.628.51a2.595 2.595 0 0 1-1.177-.33c-.03-.04-.018-.145.013-.19l.88-1.342c.01-.015.043-.014.062-.008.038.01.125.034.174.043.02 0 .06.027.06.046l.077 1.606c.004.056-.042.157-.088.173zm-2.22-3.34c-.056-.017-.143-.094-.14-.142.08-.223.185-.432.32-.62.213-.06.436-.12.657-.176l.71.895-.034.006c-.46.06-.893.086-1.3.093l-.214-.056zm2.002-1.834c.044.015.085.106.09.162l.004.125c-.427.082-.846.176-1.247.278-.023-.052-.037-.113-.015-.143.34-.23.74-.372 1.17-.42zm-.224 1.75l-.723-.906c.35-.085.703-.16 1.056-.232l.048 1.06c-.14.033-.26.056-.38.078zm-.068.28c-.003.014 0 .023-.006.032-.022.03-.07.106-.092.15-.01.02-.044.047-.064.043l-.52-.142c.222-.02.45-.04.682-.08zm.958-.19c-.008.016-.042.014-.062.01l-.007-.003c.028-.006.05-.008.076-.015l-.006.008zm-.303-.22l-.05-1.048c.437-.083.865-.15 1.273-.2a.348.348 0 0 1-.037.125l-.645.98c-.19.056-.366.1-.54.143zm1.356-1.01c.03-.046.12-.1.168-.09.188.145.355.313.498.502-.38.127-.78.252-1.177.37l.513-.782zm-1.422-.36l-.004-.1c-.002-.06.042-.164.088-.174.27.008.525.06.767.145-.28.036-.563.077-.85.13zm-.036-.276c.013 0 .025-.005.04-.005.012 0 .023.003.035.003-.022.002-.046.002-.076.002zm-3.725 1.768c-.14-.043-.108-.087-.024-.122.28-.11.595-.22.926-.326a3.082 3.082 0 0 0-.192.57 3.826 3.826 0 0 1-.71-.122zm1.2.405c.213.012.43.008.647.004l1.104.303c.02.004.028.036.028.057 0 .04.007.156.02.206 0 .02-.015.036-.03.045l-1.474.648c-.054.02-.16.02-.193-.018a2.669 2.669 0 0 1-.143-.816c0-.148.02-.29.044-.43zm.166 1.45c0-.004-.003-.01-.004-.01 0 .003.003.006.004.01zm.08.145c0-.048.076-.122.126-.145l1.48-.618c.013-.008.04.014.054.03.026.03.065.077.102.113.015.014.03.057.02.072l-.883 1.345c-.03.048-.125.1-.172.087a2.622 2.622 0 0 1-.728-.884zm.876 1c-.013-.007-.024-.016-.037-.022l.037.023zm1.436.438h.013-.012zm1.85-.763c-.04.026-.147-.026-.187-.07l-1.048-1.22c-.013-.01-.003-.045.008-.062.023-.033.054-.084.076-.13.01-.02.044-.045.064-.04l1.548.427c.05.014.13.066.146.114-.13.37-.333.71-.605.983zm.71-1.336c-.025.042-.142.057-.2.043l-1.543-.43c-.02-.004-.027-.036-.027-.056 0-.04-.004-.13-.012-.178-.005-.02.007-.062.024-.072l1.5-.568c.054-.02.156-.01.193.025.068.234.117.475.117.73 0 .173-.02.343-.05.507zm-.197-1.603c0 .05-.08.13-.13.15l.098-.035-1.598.6c-.017.007-.04-.013-.054-.03-.024-.032-.08-.1-.115-.137-.016-.014-.03-.056-.02-.072l.137-.207c.487-.13 1.01-.294 1.567-.486.04.073.083.142.117.217zm4.17-2.292c-.695.502-.368 1.093-.8 1.21-.153-.022-1.028.137-1.166.2-.294-.274-.595-.507-1.047-.625.863-.354 2.228-.703 3.014-.785zm-2.826 1.246c-.15.074-.547.226-1.084.412a3.14 3.14 0 0 0-.467-.548c.672-.036 1.22 0 1.55.136zm7.498-8.79c-1.05 1.055-.915 2.632-.792 3.872-.245.176-.54.325-.736.434-.116-1.524.05-3.795 1.528-4.307zM3.817 10.3c-.178-.236-.438-.598-.236-.844.15-.182.45-.04.628.04.148.078 1.325.712 1.645.8 2.377.592 5.38-.28 7.265 1.428.093.085.16.166.14.284-2.766-1.885-6.93.902-9.44-1.708zm2.236 3.042c.197.118.274.43.49.608.354.59 1.02.785 1.374 1.297a1.23 1.23 0 0 1-.354-.03c-.232-.045-.323-.112-.516-.196-.103-.168-.36-.224-.562-.116-.162.03-.607.008-.903-.07.058-.473.512-.925.47-1.494zm-2.767 5.08l.723.806c-.524-.006-1.03-.03-1.508-.062-.038-.052-.056-.1-.048-.13.09-.192.204-.372.333-.54.16-.03.33-.05.5-.073zm4.286.198c.088.13.16.267.227.407-.355.05-.734.09-1.132.12l.565-.48c.142-.116.304-.09.34-.048zm-.496-.124l-.804.684c-.205.013-.412.02-.622.026l.33-.928c.404.015.8.04 1.168.08-.016.05-.03.1-.072.138zm-.198 4.19c-.283.21-.606.363-.954.462-.062-.01-.182-.106-.216-.248l-.314-1.698c-.004-.02.004-.047.025-.054.05-.017.12-.05.17-.08.018-.014.044-.005.06.01l1.157 1.274c.112.136.11.29.07.335zm-2.456-3c.015.016.02.045.007.062a.63.63 0 0 0-.076.11c-.01.02-.034.023-.056.015l-1.294-.46c.4.02.8.03 1.2.03l.218.243zm1.282-.065a.67.67 0 0 0-.13-.092c-.02-.01-.028-.028-.02-.052l.025-.065.45-.024-.27.228c-.014.013-.04.02-.056.005zm-.308-.405c-.11.003-.22.01-.33.012h-.007l-.18-.956c.057-.002.107-.01.163-.013.234 0 .463.008.694.016l-.34.942zm-.75-.928l.175.94h-.493l-.77-.842c.354-.044.715-.076 1.09-.098zm.193 1.15c-.005.006-.002.02-.01.02a.944.944 0 0 0-.17.082c-.02.013-.042.005-.058-.01l-.08-.09c.105-.002.212 0 .317-.003zm-2.45-.283c.005-.013.014-.025.02-.04a.249.249 0 0 1-.02.04zm-.132.43c.033-.054.186-.118.33-.074l1.627.582c.02.006.037.028.033.05a.934.934 0 0 0-.013.16c0 .022-.02.035-.04.042l-1.7.316c-.17.025-.286-.055-.31-.113-.007-.084-.024-.164-.024-.25.002-.245.04-.483.098-.713zm.03 1.527c.004-.064.103-.192.25-.225l1.693-.312c.02-.005.043.007.052.027.017.05.022.072.054.124.01.02.004.04-.013.055l-1.35 1.085c-.145.11-.297.086-.334.042a3.057 3.057 0 0 1-.353-.798zm.405.877c-.013-.018-.026-.034-.038-.055.008.017.025.038.038.056zm.32.39c-.032-.05-.01-.23.11-.33l1.345-1.073c.014-.02.038-.022.057-.006.04.037.1.082.15.11.022.012.028.028.018.055L4.11 22.76c-.062.164-.194.228-.252.217a3.003 3.003 0 0 1-.846-.598zm.985.664c-.02-.005-.036-.015-.053-.02.017.005.034.013.053.02zm.407.127c-.054-.03-.127-.177-.083-.32l.59-1.633c.004-.02.025-.035.045-.03.052.01.1.015.16.014.023 0 .038.02.043.043l.316 1.7c.026.163-.05.272-.107.304-.082.007-.162.024-.246.024a2.87 2.87 0 0 1-.72-.1zm2.803-.754a.27.27 0 0 0 .037-.04c-.013.014-.023.027-.037.04zm.104-.12c-.053.034-.22.022-.326-.087l-1.16-1.288a.048.048 0 0 1-.006-.062.603.603 0 0 0 .074-.11c.01-.02.035-.024.056-.015l1.652.588c.17.066.213.2.196.256-.128.264-.29.504-.486.717zm.498-.74c.024-.046.05-.112.08-.18-.026.06-.052.12-.08.18zm.19-.538c-.023.055-.17.134-.323.087l-1.644-.59c-.018-.007-.036-.027-.033-.05.01-.053.016-.08.016-.138 0-.022.02-.034.04-.04l1.73-.272c.17-.02.28.06.296.118.003.06.015.112.015.17 0 .247-.04.484-.097.715zm-.007-1.456c0 .068-.1.192-.248.22l-1.722.27c-.02.005-.04-.007-.05-.027a.825.825 0 0 0-.072-.17c-.01-.02-.006-.04.01-.057l.513-.44c.49-.036.975-.092 1.456-.163.045.12.08.243.113.367zm.886-.89c.11.036.15.11.008.148-.148.04-.327.072-.5.107-.062-.15-.148-.288-.23-.427.268.053.515.108.72.172zm-2.814-.63l.07-.204c.065-.16.202-.217.264-.207.276.133.53.306.753.513-.36-.045-.72-.08-1.087-.1zm-.224-.612c.053.04.122.193.078.335l-.096.27c-.262-.012-.523-.025-.786-.022-.068 0-.133.013-.202.016l-.067-.367c-.026-.168.052-.274.11-.303.083-.007.165-.024.25-.024.245-.002.48.036.712.094zm-1.52.03c.06.006.186.104.218.25l.043.23a3.393 3.393 0 0 1-.402-.438 1.73 1.73 0 0 1 .14-.042zm-.102.614c-.276.026-.55.06-.822.1-.056-.11-.06-.212-.028-.25.135-.1.28-.188.435-.265.122.14.26.278.415.414zm-1.185.122a.048.048 0 0 1-.014.016c.007-.006.013-.01.015-.016zm-1.806.68c.22-.082.49-.155.79-.227-.08.145-.15.295-.208.452-.205-.024-.413-.047-.585-.08-.144-.025-.108-.108.002-.147zm50.095 4.234h-2.796c-.036.19.187.33.312.476h3.058l.85-.415c.153-.37-.152-.7-.14-.997.052-.89-.446-1.777-.707-2.594.17-.182.384-.6.663-.488.656 1.02.775 2.318.664 3.615-.066.32-.61.61-.595.914.01.106.726.06 1.023-.19.053-.21.436-.465.56-.495.138-.39-.076-.378-.04-.614.066-.163-.025-1.928-.147-2.117-.045-.026-.062-.026-.064-.023-.136-.35.198-.887.33-1.22l.977-.087c-.115-.87-.427-1.77-.62-2.66.118-.21.335-.37.532-.49 1.028-.68.122-1.772.09-2.617-.176-.44-.78-.78-.835-1.265.125.1.22.058.248.066.294-.202.28-.494.133-.86.448-.534.72-.778.804-.948-.03-.445-.745-1.108-1.165-1.11-.247.136-.41.412-.867.765-.014.02-.548-.186-.71-.013-.157.125-.102.538.185.763-.033.11-.066.152-.128.286-.03.063-.044.133-.003.17.095.088.128.218.062.422-.07.217.173.376.256.407.017.003.042.033.07.07.032.24-.78.67-.78.855-.062.558-.41.502-.75 2.34a6.5 6.5 0 0 1 .006 1.19c-.417 1.1-.756 1.734-1.036 2.527-.233.656 1.075 2.55 1.096 3.842-.29.43-.52.37-.536.497zm2.127-1.965c-.067-.175-.123-.423-.09-.606.11-.11.328-.03.434-.048.133.61.167.698-.345.653zm.007-9.05c.04-.026.072-.117.095-.15.43-.276.134-.077-.295-.303-.14-.07-.145-.205-.125-.394.025-.235-.072-.28-.108-.354-.014-.033.053-.148.108-.228.098-.152.19-.466.236-.543.715.028.554.345.573.402.06.154.36.483.504.588-.04.433-.38.178-.23.572-.04.75-.93.653-1.312 1.27-.037-.61.5-.608.555-.86zm-.81 3.224c.194.175.4.395.547.432.103.257-.214.292-.325.413-.268.04-.368-.243-.523-.115-.036.028-.194-.003-.192-.034.082-.227.322-.557.49-.697zM50.96 19.13c-.1-.517.59-1.32 1.05-2.9.186-.066.286.364.553.2.414.008.236 1.083.62.398-.01-.3-.017-.642.222-.8.26-.06.426.083.445.312l-.4.62c.756.03-.24 1.242.756 1.02-.033.456-.278 1.732-.453 1.668-.136-.707-.247-.412-.247-.205.03.275.022.5.187.72-.056.056-.256.052-.314.065-.565-.805-.54-1.908-.904-2.78-.062-.005-.14.07-.137.133-.042.528-.248 1.287-.682 1.537-.27.16.595.062-.11.396.266.18.02.423-.28.423-.148-.317-.262-.58-.307-.808zm.75 1.747c-.104-.122-.263-.467-.326-.616l.41-.173c.132.147.26.41.276.645-.09.048-.22.133-.36.144z"></path><path d="M38.422 12.397c-.06-.842.284-1.552-.105-2.45.005-.37.263-.652.193-.997l-.637.156c-.096.706-.212.938-.116 1.604.168.76.254 1.455.665 1.687zm-6.57 2.346c2.432-.683 4.113-1.267 6.13-2.112-.84-1.79-.657-2.31-.585-3.457 0 0-1.025.015-2.215-.302-1.412.91-3.06 4.17-3.33 5.873zm11.276-4.915c-1.025-.706-1.82-2.35-2.938-2.237-.108-1.207-.637-3.263 1.034-5.43.217-.097.57-.136.706-.295-.685-.07-1.582.352-2.232-.018 0 0 .3.526.65.606-.23.315-.68.537-.406 1.083-.56.33-.347.827-.175 1.092-.278.29-.447.806-.078 1.12-.456.49.107.904.24 1.07-.23.488-.007.865-.007.865-.01.35-.634.854-.86 1.016-.27.825-.166 2.485-.126 3.584 1.526-.727 3.018-1.423 4.19-2.456z"></path></svg>